# xmcd
#
# Track frame offsets: 
#        183
#        46408
#        55683
#        75558
#        92783
#        103483
#        116733
#        128108
#        141908
#
# Disc length: 2239 seconds
#
# Revision: 4
# Processed by: cddbd v1.5.2PL0 Copyright (c) Steve Scherf et al.
# Submitted via: ExactAudioCopy v1.1
#
DISCID=7c08bd09
DTITLE=B.B. King - Lucille
DYEAR=1968
DGENRE=Blues
TTITLE0=Lucille (stereo)
TTITLE1=You Move Me So (stereo)
TTITLE2=Country Girl (stereo)
TTITLE3=No Money, No Luck (stereo)
TTITLE4=I Need Your Love (stereo)
TTITLE5=Rainin' All The Time (stereo)
TTITLE6=I'm With You (stereo)
TTITLE7=Stop Putting The Hurt On Me (stereo)
TTITLE8=Watch Yourself (stereo)
EXTD=
EXTT0=
EXTT1=
EXTT2=
EXTT3=
EXTT4=
EXTT5=
EXTT6=
EXTT7=
EXTT8=
PLAYORDER=
